<svg fill="none" height="15" viewBox="0 0 15 15" width="15" xmlns="http://www.w3.org/2000/svg"><path d="m11.5 13.5.1568-.4748-.218-.072-.1967.1184zm2-2-.4212-.2695-.1288.2014.0758.2266zm1 2.9908-.1568.4748c.1797.0594.3774.0122.511-.1219.1336-.134.18-.3319.12-.5114zm-3.2579-1.4192c-.9562.5758-2.48553.9192-3.7421.9192v1c1.38543 0 3.1061-.369 4.2579-1.0624zm-3.7421.9192c-3.59017 0-6.5-2.9083-6.5-6.49532h-1c0 4.13992 3.35817 7.49532 7.5 7.49532zm-6.5-6.49532c0-3.58703 2.90984-6.49548 6.5-6.49548v-1c-4.14184 0-7.5 3.35556-7.5 7.49548zm6.5-6.49548c3.5902 0 6.5 2.90845 6.5 6.49548h1c0-4.13992-3.3582-7.49548-7.5-7.49548zm6.5 6.49548c0 1.3308-.2957 2.75742-.9212 3.73502l.8424.539c.7645-1.195 1.0788-2.83264 1.0788-4.27402zm-2.6568 6.47932 3 .9908.3136-.9495-3-.9909zm3.631.3575-1-2.9908-.9484.317 1 2.9909z" fill="#000"/></svg>