<svg fill="none" height="24" viewBox="0 0 24 24" width="24" xmlns="http://www.w3.org/2000/svg"><path d="m12.257 11.435-1.516-2.87201-1.517 2.87201c-.10733.21-.2625.3919-.453.531-.19166.1398-.41313.2332-.647.273l-3.124.61 2.181 2.6c.14712.1605.25797.3508.325.558.06649.2067.08731.4254.061.641l-.415 3.352 2.877-1.386c.2223-.1062.4656-.1612.712-.161.2313-.0002.4594.055.665.161l2.942 1.3-.416-3.314c-.0263-.2156-.0055-.4343.061-.641.067-.2072.1779-.3975.325-.558l2.163-2.556-3.124-.61c-.2339-.0398-.4553-.1332-.647-.273-.19-.138-.3451-.3184-.453-.527z" style="fill-rule:evenodd;clip-rule:evenodd;stroke:#000;stroke-width:1.5;stroke-linecap:round;stroke-linejoin:round"/><path d="m18.9493 5.10932c.2935-.29234.2944-.76722.002-1.06066-.2923-.29344-.7672-.29433-1.0606-.00198zm-4.5376 2.40336c-.2935.29234-.2944.76722-.002 1.06066.2923.29344.7672.29433 1.0606.00198zm5.1175.48479c.2935-.29226.2945-.76713.0023-1.06065-.2923-.29353-.7671-.29455-1.0607-.00229zm-3.3784 1.24706c-.2935.29226-.2945.76717-.0023 1.06067.2923.2935.7672.2945 1.0607.0023zm-.1006-4.71306c.2935-.29226.2945-.76713.0023-1.06065-.2923-.29353-.7671-.29455-1.0607-.00229zm-3.3794 1.24806c-.2935.29226-.2945.76713-.0023 1.06065.2923.29353.7672.29455 1.0607.00229zm5.2199-1.73285-3.479 3.466 1.0586 1.06264 3.479-3.466zm.5801 2.88785-2.32 2.31 1.0584 1.06297 2.32-2.31003zm-3.479-3.466-2.321 2.311 1.0584 1.06294 2.321-2.311z" fill="#000"/></svg>